<svg width="12" height="18" viewBox="0 0 12 18" fill="none" xmlns="http://www.w3.org/2000/svg">
<path d="M2.5 7C2.10444 7 1.71776 7.1173 1.38886 7.33706C1.05996 7.55682 0.803617 7.86918 0.652242 8.23463C0.500867 8.60009 0.46126 9.00222 0.53843 9.39018C0.615601 9.77814 0.806082 10.1345 1.08579 10.4142C1.36549 10.6939 1.72186 10.8844 2.10982 10.9616C2.49778 11.0387 2.89992 10.9991 3.26537 10.8478C3.63082 10.6964 3.94318 10.44 4.16294 10.1111C4.3827 9.78224 4.5 9.39556 4.5 9C4.5 8.46957 4.28929 7.96086 3.91421 7.58579C3.53914 7.21071 3.03043 7 2.5 7ZM2.5 14C2.10444 14 1.71776 14.1173 1.38886 14.3371C1.05996 14.5568 0.803617 14.8692 0.652242 15.2346C0.500867 15.6001 0.46126 16.0022 0.53843 16.3902C0.615601 16.7781 0.806082 17.1345 1.08579 17.4142C1.36549 17.6939 1.72186 17.8844 2.10982 17.9616C2.49778 18.0387 2.89992 17.9991 3.26537 17.8478C3.63082 17.6964 3.94318 17.44 4.16294 17.1111C4.3827 16.7822 4.5 16.3956 4.5 16C4.5 15.4696 4.28929 14.9609 3.91421 14.5858C3.53914 14.2107 3.03043 14 2.5 14ZM9.5 4C9.89556 4 10.2822 3.8827 10.6111 3.66294C10.94 3.44318 11.1964 3.13082 11.3478 2.76537C11.4991 2.39992 11.5387 1.99778 11.4616 1.60982C11.3844 1.22186 11.1939 0.865492 10.9142 0.585787C10.6345 0.306082 10.2781 0.115601 9.89018 0.0384303C9.50222 -0.0387401 9.10009 0.000866562 8.73463 0.152242C8.36918 0.303617 8.05682 0.559962 7.83706 0.88886C7.6173 1.21776 7.5 1.60444 7.5 2C7.5 2.53043 7.71071 3.03914 8.08579 3.41421C8.46086 3.78929 8.96957 4 9.5 4ZM2.5 8.39371e-07C2.10444 8.39371e-07 1.71776 0.117299 1.38886 0.337062C1.05996 0.556824 0.803617 0.869182 0.652242 1.23463C0.500867 1.60009 0.46126 2.00222 0.53843 2.39018C0.615601 2.77814 0.806082 3.13451 1.08579 3.41421C1.36549 3.69392 1.72186 3.8844 2.10982 3.96157C2.49778 4.03874 2.89992 3.99914 3.26537 3.84776C3.63082 3.69638 3.94318 3.44004 4.16294 3.11114C4.3827 2.78224 4.5 2.39556 4.5 2C4.5 1.46957 4.28929 0.96086 3.91421 0.585787C3.53914 0.210714 3.03043 8.39371e-07 2.5 8.39371e-07ZM9.5 14C9.10444 14 8.71776 14.1173 8.38886 14.3371C8.05996 14.5568 7.80362 14.8692 7.65224 15.2346C7.50087 15.6001 7.46126 16.0022 7.53843 16.3902C7.6156 16.7781 7.80608 17.1345 8.08579 17.4142C8.36549 17.6939 8.72186 17.8844 9.10982 17.9616C9.49778 18.0387 9.89992 17.9991 10.2654 17.8478C10.6308 17.6964 10.9432 17.44 11.1629 17.1111C11.3827 16.7822 11.5 16.3956 11.5 16C11.5 15.4696 11.2893 14.9609 10.9142 14.5858C10.5391 14.2107 10.0304 14 9.5 14ZM9.5 7C9.10444 7 8.71776 7.1173 8.38886 7.33706C8.05996 7.55682 7.80362 7.86918 7.65224 8.23463C7.50087 8.60009 7.46126 9.00222 7.53843 9.39018C7.6156 9.77814 7.80608 10.1345 8.08579 10.4142C8.36549 10.6939 8.72186 10.8844 9.10982 10.9616C9.49778 11.0387 9.89992 10.9991 10.2654 10.8478C10.6308 10.6964 10.9432 10.44 11.1629 10.1111C11.3827 9.78224 11.5 9.39556 11.5 9C11.5 8.46957 11.2893 7.96086 10.9142 7.58579C10.5391 7.21071 10.0304 7 9.5 7Z" fill="#6E7B97"/>
</svg>
